<svg xmlns="http://www.w3.org/2000/svg" width="350.01" height="34" viewBox="0 0 350.01 34"><defs><style>.cls-1,.cls-10,.cls-6,.cls-7,.cls-8,.cls-9{fill:none;}.cls-2{fill:#34baa6;}.cls-3{fill:#939393;}.cls-4{fill:#6f34ad;}.cls-5{opacity:0.6;}.cls-10,.cls-6,.cls-7,.cls-8,.cls-9{stroke:#a0a0a3;stroke-linejoin:round;}.cls-7{stroke-dasharray:2.86 0.95;}.cls-8{stroke-dasharray:3.31 1.1;}.cls-9{stroke-dasharray:2.25 0.75;}.cls-10{stroke-dasharray:2.91 0.97;}.cls-11{fill:#cb548d;}.cls-12{fill:#fab217;}.cls-13{fill:#d64343;}</style></defs><title>seats-status</title><g id="Layer_2" data-name="Layer 2"><g id="Layer_1-2" data-name="Layer 1"><rect class="cls-1" x="300.01" width="50" height="34"/><rect class="cls-1" width="50" height="34"/><path class="cls-2" d="M32.94,33H23.36A2.38,2.38,0,0,1,21,30.64a.58.58,0,0,1,0-.19l2.07-5.22.93.36-2,5.14A1.39,1.39,0,0,0,23.36,32h9.58a1.38,1.38,0,0,0,1.37-1.29l-2.23-5.12.91-.4,2.28,5.23a.45.45,0,0,1,0,.2A2.38,2.38,0,0,1,32.94,33Z"/><path class="cls-2" d="M34.63,25.91H21.51a2.8,2.8,0,0,1-2.74-2.26.76.76,0,0,1,0-.11l-6-18.9a2.81,2.81,0,0,1,1.81-3.52,2.73,2.73,0,0,1,2.13.18,2.78,2.78,0,0,1,1.21,1.19,2,2,0,0,1,2.44,1.33l1.3,4a2,2,0,0,1-.13,1.53,2,2,0,0,1-1.06,1l1.36,4.26h8.77a1.89,1.89,0,0,1,0,3.77H23l.61,1.93H34.63a2.8,2.8,0,0,1,0,5.6ZM15.36,2a1.68,1.68,0,0,0-.54.08,1.8,1.8,0,0,0-1.17,2.26l6.07,19a1.84,1.84,0,0,0,1.79,1.59H34.63a1.8,1.8,0,0,0,0-3.6H23.21a.5.5,0,0,1-.48-.35L21.8,18a.49.49,0,0,1,.07-.44.52.52,0,0,1,.41-.21h8.25a.89.89,0,0,0,0-1.77H21.39a.5.5,0,0,1-.48-.35l-1.63-5.13a.5.5,0,0,1,.45-.65.75.75,0,0,0,.24,0,1,1,0,0,0,.6-.5,1,1,0,0,0,.06-.78l-1.29-4a1,1,0,0,0-1.28-.66.84.84,0,0,0-.22.1.52.52,0,0,1-.44.05.53.53,0,0,1-.3-.32,1.83,1.83,0,0,0-.91-1.11A1.72,1.72,0,0,0,15.36,2Z"/><rect class="cls-1" x="150" width="50" height="34"/><path class="cls-3" d="M183.21,33h-9.58a2.39,2.39,0,0,1-2.38-2.38.41.41,0,0,1,0-.19l2.06-5.22.93.36-2,5.14A1.39,1.39,0,0,0,173.63,32h9.58a1.38,1.38,0,0,0,1.37-1.29l-2.23-5.12.92-.4,2.28,5.23a.65.65,0,0,1,0,.2A2.39,2.39,0,0,1,183.21,33Z"/><path class="cls-3" d="M184.91,25.91H171.78A2.8,2.8,0,0,1,169,23.65s0-.08,0-.11l-6-18.9a2.81,2.81,0,0,1,.18-2.13,2.79,2.79,0,0,1,3.77-1.21,2.81,2.81,0,0,1,1.2,1.19,2,2,0,0,1,2.45,1.33l1.29,4a2,2,0,0,1-1.19,2.49L172,14.61h8.77a1.89,1.89,0,1,1,0,3.77h-7.57l.62,1.93h11.06a2.8,2.8,0,1,1,0,5.6ZM165.64,2a1.7,1.7,0,0,0-.55.08,1.79,1.79,0,0,0-1.16,2.26l6.06,19a1.84,1.84,0,0,0,1.79,1.59h13.13a1.8,1.8,0,1,0,0-3.6H173.48A.48.48,0,0,1,173,21L172.07,18a.49.49,0,0,1,.07-.44.52.52,0,0,1,.41-.21h8.25a.89.89,0,1,0,0-1.77h-9.14a.49.49,0,0,1-.47-.35l-1.64-5.13a.51.51,0,0,1,.07-.43.49.49,0,0,1,.38-.22.87.87,0,0,0,.25,0,1,1,0,0,0,.66-1.28l-1.29-4a1,1,0,0,0-1.28-.66,1.07,1.07,0,0,0-.23.1.5.5,0,0,1-.43.05.52.52,0,0,1-.31-.32,1.79,1.79,0,0,0-.91-1.11A1.71,1.71,0,0,0,165.64,2Z"/><rect class="cls-1" x="50" width="50" height="34"/><path class="cls-2" d="M82.94,33H73.36A2.39,2.39,0,0,1,71,30.64a.58.58,0,0,1,0-.19l2.07-5.22.93.36-2,5.14A1.39,1.39,0,0,0,73.36,32h9.58a1.38,1.38,0,0,0,1.37-1.29l-2.23-5.12.92-.4,2.27,5.23a.45.45,0,0,1,0,.2A2.38,2.38,0,0,1,82.94,33Z"/><path class="cls-2" d="M84.64,25.91H71.51a2.8,2.8,0,0,1-2.74-2.26.76.76,0,0,1,0-.11l-6-18.9a2.81,2.81,0,0,1,1.81-3.52,2.73,2.73,0,0,1,2.13.18,2.78,2.78,0,0,1,1.21,1.19A2,2,0,0,1,70.3,3.82l1.29,4a2,2,0,0,1-.13,1.53,2,2,0,0,1-1.06,1l1.36,4.26h8.77a1.89,1.89,0,1,1,0,3.77H73l.62,1.93H84.64a2.8,2.8,0,0,1,0,5.6ZM65.36,2a1.68,1.68,0,0,0-.54.08,1.8,1.8,0,0,0-1.17,2.26l6.07,19a1.84,1.84,0,0,0,1.79,1.59H84.64a1.8,1.8,0,0,0,0-3.6H73.21a.5.5,0,0,1-.48-.35L71.8,18a.49.49,0,0,1,.07-.44.52.52,0,0,1,.41-.21h8.25a.89.89,0,1,0,0-1.77H71.39a.48.48,0,0,1-.47-.35l-1.64-5.13a.5.5,0,0,1,.45-.65.75.75,0,0,0,.24,0,1,1,0,0,0,.6-.5,1.06,1.06,0,0,0,.07-.78l-1.3-4a1,1,0,0,0-1.28-.66.84.84,0,0,0-.22.1.52.52,0,0,1-.44.05.53.53,0,0,1-.3-.32,1.83,1.83,0,0,0-.91-1.11A1.72,1.72,0,0,0,65.36,2Z"/><path class="cls-4" d="M82.94,33H73.36A2.39,2.39,0,0,1,71,30.64a.58.58,0,0,1,0-.19l2.07-5.22.93.36-2,5.14A1.39,1.39,0,0,0,73.36,32h9.58a1.38,1.38,0,0,0,1.37-1.29l-2.23-5.12.92-.4,2.27,5.23a.45.45,0,0,1,0,.2A2.38,2.38,0,0,1,82.94,33Z"/><path class="cls-4" d="M84.64,25.91H71.51a2.8,2.8,0,0,1-2.74-2.26.76.76,0,0,1,0-.11l-6-18.9a2.81,2.81,0,0,1,1.81-3.52,2.73,2.73,0,0,1,2.13.18,2.78,2.78,0,0,1,1.21,1.19A2,2,0,0,1,70.3,3.82l1.29,4a2,2,0,0,1-.13,1.53,2,2,0,0,1-1.06,1l1.36,4.26h8.77a1.89,1.89,0,1,1,0,3.77H73l.62,1.93H84.64a2.8,2.8,0,0,1,0,5.6ZM65.36,2a1.68,1.68,0,0,0-.54.08,1.8,1.8,0,0,0-1.17,2.26l6.07,19a1.84,1.84,0,0,0,1.79,1.59H84.64a1.8,1.8,0,0,0,0-3.6H73.21a.5.5,0,0,1-.48-.35L71.8,18a.49.49,0,0,1,.07-.44.52.52,0,0,1,.41-.21h8.25a.89.89,0,1,0,0-1.77H71.39a.48.48,0,0,1-.47-.35l-1.64-5.13a.5.5,0,0,1,.45-.65.75.75,0,0,0,.24,0,1,1,0,0,0,.6-.5,1.06,1.06,0,0,0,.07-.78l-1.3-4a1,1,0,0,0-1.28-.66.84.84,0,0,0-.22.1.52.52,0,0,1-.44.05.53.53,0,0,1-.3-.32,1.83,1.83,0,0,0-.91-1.11A1.72,1.72,0,0,0,65.36,2Z"/><path class="cls-4" d="M58.4,16.63a.93.93,0,0,0-.61.17.89.89,0,0,0-.35.52.92.92,0,0,0,0,.57,1,1,0,0,0,.46.49Z"/><path class="cls-4" d="M57.63,21.52a.92.92,0,0,0,1-.78.9.9,0,0,0,0-.54,1.09,1.09,0,0,0-.47-.5Z"/><path class="cls-4" d="M65.43,3.51a.62.62,0,0,0-.62.62.6.6,0,0,0,.18.43,16.13,16.13,0,0,1-2.54,5.36l-.89-1.48a.75.75,0,0,0-.4-.32c.78-1.26,1.81-2.45,2.56-3.58.23-.35-.33-.67-.56-.33-.87,1.31-1.82,2.58-2.64,3.93h0l-5.26,2.73a2,2,0,0,0-.88,1.07L51.12,23.39a.76.76,0,0,0,.52.93l9,2.55a.76.76,0,0,0,.93-.52L64.78,14.9a2,2,0,0,0-.18-1.38l-1.47-2.46a4.84,4.84,0,0,1-1.74,1.44,1.78,1.78,0,0,1-1.56.11h0a1.11,1.11,0,0,1-.76-1.37,1.08,1.08,0,0,1,.38-.55,2.33,2.33,0,0,0,0,.53,1.21,1.21,0,0,0,2,.81c1.24-.87,2.05-2.58,2.71-3.89a17,17,0,0,0,1.39-3.42.61.61,0,0,0-.15-1.21ZM59,15l.37.1a.09.09,0,0,1,.07.13l-.14.49a3.36,3.36,0,0,1,.73.38,3.18,3.18,0,0,1,.57.52.09.09,0,0,1,0,.14l-.61.52a.1.1,0,0,1-.14,0,2.31,2.31,0,0,0-.36-.34,2.38,2.38,0,0,0-.44-.25l-.51,1.84a2.24,2.24,0,0,1,1.12,1,1.77,1.77,0,0,1,.1,1.33A2,2,0,0,1,58.92,22a2.11,2.11,0,0,1-1.45.28l-.14.5a.09.09,0,0,1-.12.07l-.37-.11a.09.09,0,0,1-.07-.12l.14-.48a2.88,2.88,0,0,1-.94-.48,3.27,3.27,0,0,1-.69-.7.09.09,0,0,1,0-.15l.68-.49a.08.08,0,0,1,.13,0,3,3,0,0,0,.43.47,2.46,2.46,0,0,0,.63.38l.55-1.94a2.29,2.29,0,0,1-1.1-1,1.78,1.78,0,0,1-.12-1.33,2.21,2.21,0,0,1,.33-.69,1.73,1.73,0,0,1,.53-.48,1.88,1.88,0,0,1,.66-.25,1.84,1.84,0,0,1,.74,0L58.9,15C58.92,15,59,14.93,59,15Zm1.13-4.49a.76.76,0,0,1,.26,0,1.06,1.06,0,0,1,.76.82C60.46,11.85,59.78,12,60.15,10.46Z"/><rect class="cls-1" x="100" width="50" height="34"/><g class="cls-5"><line class="cls-6" x1="123.97" y1="25.41" x2="123.42" y2="26.8"/><path class="cls-7" d="M123.07,27.69l-1.16,2.95a1.88,1.88,0,0,0,1.87,1.88h9.58a1.88,1.88,0,0,0,1.88-1.88l-1.49-3.42"/><line class="cls-6" x1="133.56" y1="26.78" x2="132.96" y2="25.41"/><polyline class="cls-6" points="125.14 20.81 123.64 20.81 123.18 19.38"/><polyline class="cls-6" points="123.16 19.31 122.7 17.88 124.2 17.88"/><path class="cls-8" d="M125.31,17.88H131a1.39,1.39,0,0,0,0-2.77h-7.09"/><polyline class="cls-6" points="123.32 15.11 121.82 15.11 121.36 13.68"/><path class="cls-6" d="M120.64,11.41,120.18,10a1.45,1.45,0,0,0,1.23-.76"/><path class="cls-9" d="M121.61,8.51a1.68,1.68,0,0,0-.07-.5l-1.29-4a1.57,1.57,0,0,0-.49-.71"/><path class="cls-6" d="M119.44,3.06a1.54,1.54,0,0,0-1.1-.07,1.5,1.5,0,0,0-.34.16l0-.07a2.26,2.26,0,0,0-.82-1.14"/><path class="cls-10" d="M116.28,1.54a2.3,2.3,0,0,0-2.68,3l6,18.9a1.17,1.17,0,0,1,.05.11,2.31,2.31,0,0,0,2.26,1.91h13.12a2.3,2.3,0,1,0,0-4.6h-9.44"/></g><rect class="cls-1" x="200" width="50" height="34"/><path class="cls-11" d="M233.37,33h-9.58a2.39,2.39,0,0,1-2.38-2.38.58.58,0,0,1,0-.19l2.06-5.22.93.36-2,5.14A1.38,1.38,0,0,0,223.79,32h9.58a1.39,1.39,0,0,0,1.38-1.29l-2.24-5.12.92-.4,2.28,5.23a.45.45,0,0,1,0,.2A2.39,2.39,0,0,1,233.37,33Z"/><path class="cls-11" d="M235.07,25.91H222a2.8,2.8,0,0,1-2.74-2.26,1.17,1.17,0,0,0-.05-.11l-6-18.9a2.73,2.73,0,0,1,.18-2.13A2.77,2.77,0,0,1,215,1.12a2.73,2.73,0,0,1,2.13.18,2.76,2.76,0,0,1,1.2,1.19,2,2,0,0,1,2.45,1.33l1.29,4a2,2,0,0,1-1.19,2.49l1.36,4.26H231a1.89,1.89,0,1,1,0,3.77H223.4l.61,1.93h11.06a2.8,2.8,0,1,1,0,5.6ZM215.8,2a1.75,1.75,0,0,0-.55.08,1.8,1.8,0,0,0-1.16,2.26l6.07,19A1.83,1.83,0,0,0,222,24.91h13.12a1.8,1.8,0,1,0,0-3.6H223.65a.5.5,0,0,1-.48-.35L222.24,18a.47.47,0,0,1,.07-.44.49.49,0,0,1,.4-.21H231a.89.89,0,1,0,0-1.77h-9.13a.5.5,0,0,1-.48-.35l-1.63-5.13a.47.47,0,0,1,.06-.43.5.5,0,0,1,.38-.22.87.87,0,0,0,.25,0,1,1,0,0,0,.59-.5,1,1,0,0,0,.07-.78l-1.29-4a1,1,0,0,0-1.28-.66.84.84,0,0,0-.22.1.52.52,0,0,1-.44.05.5.5,0,0,1-.3-.32,1.84,1.84,0,0,0-.92-1.11A1.71,1.71,0,0,0,215.8,2Z"/><circle class="cls-11" cx="215.86" cy="4.14" r="0.63"/><path class="cls-11" d="M213.56,4.22c-.95,1.42-2,2.79-2.86,4.26a4.67,4.67,0,0,0-.91,2.84,1.22,1.22,0,0,0,2.06.82c1.26-.88,2.08-2.61,2.74-3.94A13.49,13.49,0,0,0,216.16,4c0-.42-.61-.41-.65,0-.24,2.11-1.66,4.51-2.85,6.23-.6.88-3,3.07-2-.13.6-2,2.37-3.86,3.51-5.57.23-.35-.33-.68-.56-.33Z"/><path class="cls-11" d="M210.14,20.47a.65.65,0,0,0-.39,0,.54.54,0,0,0-.28.22l-.05.09,0,.14c0,.07-.05.15-.08.26s-.07.24-.11.4-.08.29-.11.4,0,.19,0,.26a.64.64,0,0,0,0,.15v.1a.5.5,0,0,0,.13.33.63.63,0,0,0,.34.19.71.71,0,0,0,.38,0,.54.54,0,0,0,.28-.22l0-.09.05-.15a1.86,1.86,0,0,0,.08-.25c0-.11.07-.24.12-.4s.07-.3.1-.4a2.61,2.61,0,0,1,.06-.26,1.37,1.37,0,0,0,0-.16V21a.54.54,0,0,0-.13-.33A.67.67,0,0,0,210.14,20.47Z"/><path class="cls-11" d="M206.39,18.38a.65.65,0,0,0,.39,0,.54.54,0,0,0,.28-.22l.05-.09,0-.14.08-.26c0-.1.07-.24.11-.4a3.31,3.31,0,0,0,.1-.4,1.85,1.85,0,0,0,.06-.26.61.61,0,0,0,0-.16v-.1a.49.49,0,0,0-.13-.32.77.77,0,0,0-.34-.2.81.81,0,0,0-.38,0,.54.54,0,0,0-.28.22l0,.09a1.51,1.51,0,0,0-.06.15c0,.06,0,.15-.07.25s-.07.24-.12.4-.07.3-.1.4a2.61,2.61,0,0,1-.06.26,1.37,1.37,0,0,0,0,.16s0,.07,0,.1a.55.55,0,0,0,.14.33A.67.67,0,0,0,206.39,18.38Z"/><path class="cls-11" d="M215,13.66l-1.49-2.5a4.88,4.88,0,0,1-1.76,1.46,1.84,1.84,0,0,1-1.59.11h0a1.12,1.12,0,1,1,1.38-.77l0,.09a5,5,0,0,0,.73-.46,4.77,4.77,0,0,0,.93-1l-1.22-2.05a.83.83,0,0,0-1.08-.31L205.54,11a2,2,0,0,0-.89,1.08l-3.3,11.6a.78.78,0,0,0,.53,1L211,27.18a.77.77,0,0,0,.94-.53l3.3-11.6A2,2,0,0,0,215,13.66Zm-9.77,4a1.54,1.54,0,0,1,0-.19c0-.08,0-.17.06-.29l.12-.46c.05-.19.09-.34.13-.45a1.86,1.86,0,0,1,.09-.28,1.05,1.05,0,0,1,.08-.18.91.91,0,0,1,.07-.14,1.21,1.21,0,0,1,.6-.47,1.3,1.3,0,0,1,.83,0,1.34,1.34,0,0,1,.7.42,1.16,1.16,0,0,1,.29.71v.15a2,2,0,0,1,0,.2,2.42,2.42,0,0,1-.06.28c0,.12-.06.27-.11.46s-.1.34-.13.46-.07.21-.09.28a.91.91,0,0,1-.08.17c0,.05,0,.1-.07.14a1.21,1.21,0,0,1-.6.47,1.37,1.37,0,0,1-.83,0,1.32,1.32,0,0,1-.71-.43,1.2,1.2,0,0,1-.28-.7Zm6,3.45a1.54,1.54,0,0,1,0,.19c0,.08,0,.17-.06.29l-.12.46c-.05.19-.1.34-.13.45a1.86,1.86,0,0,1-.09.28,1.05,1.05,0,0,1-.08.18c0,.05,0,.09-.07.14a1.21,1.21,0,0,1-.6.47,1.38,1.38,0,0,1-.83,0,1.41,1.41,0,0,1-.71-.42,1.23,1.23,0,0,1-.28-.71v-.16s0-.11,0-.19a2.42,2.42,0,0,1,.06-.28c0-.12.06-.27.11-.46s.1-.34.13-.46.07-.21.09-.28a.91.91,0,0,1,.08-.17s0-.1.07-.14a1.16,1.16,0,0,1,.6-.47,1.37,1.37,0,0,1,.83,0,1.32,1.32,0,0,1,.71.43,1.2,1.2,0,0,1,.28.7Zm.37-4.66-6.07,6.06a.19.19,0,0,1-.18.06l-.51-.14s-.05,0-.06,0a.13.13,0,0,1,0-.07l6.07-6.06a.18.18,0,0,1,.19-.06l.51.14s.05,0,.05.05A.13.13,0,0,1,211.66,16.49Z"/><rect class="cls-1" x="250.01" width="50" height="34"/><path class="cls-12" d="M325,3a14,14,0,1,0,14,14A14,14,0,0,0,325,3Zm0,26.25A12.25,12.25,0,1,1,337.26,17,12.26,12.26,0,0,1,325,29.25Zm1.25-7.46v2.14a.19.19,0,0,1-.21.21H324a.19.19,0,0,1-.21-.21V21.79a.19.19,0,0,1,.21-.21h2.1A.19.19,0,0,1,326.26,21.79Zm.06-11.72-.48,9.87a.19.19,0,0,1-.21.21h-1.24a.19.19,0,0,1-.21-.21l-.49-9.87a.19.19,0,0,1,.21-.21h2.21A.19.19,0,0,1,326.32,10.07Z"/><path class="cls-13" d="M275,3a14,14,0,1,0,14,14A14,14,0,0,0,275,3Zm0,26.25A12.25,12.25,0,1,1,287.26,17,12.26,12.26,0,0,1,275,29.25Zm5.86-16.88L276.24,17l4.63,4.63a.86.86,0,0,1,0,1.24.88.88,0,0,1-1.23,0L275,18.24l-4.64,4.63a.88.88,0,0,1-1.23,0,.88.88,0,0,1,0-1.24L273.77,17l-4.63-4.63a.88.88,0,0,1,0-1.24.87.87,0,0,1,1.23,0L275,15.76l4.63-4.63a.87.87,0,0,1,1.23,1.24Z"/></g></g></svg>