<svg width="80" height="24" viewBox="0 0 80 24" fill="none" xmlns="http://www.w3.org/2000/svg">
<g clip-path="url(#clip0_1_2)">
<path d="M32.37 5.15C33.265 5.15981 34.1388 5.42334 34.89 5.91C36.58 7.33 34.37 9.09 33.17 9.64C31.97 10.19 20 15.87 13.78 18.8C13.6864 18.8453 13.584 18.8692 13.48 18.87C13.3724 18.8672 13.2664 18.8428 13.1685 18.7981C13.0705 18.7534 12.9826 18.6895 12.91 18.61L4.55 9.45C4.52752 9.43236 4.51097 9.40827 4.50258 9.38095C4.49419 9.35363 4.49437 9.3244 4.50307 9.29719C4.51178 9.26997 4.52861 9.24607 4.5513 9.2287C4.57399 9.21132 4.60145 9.20131 4.63 9.2H7.63H7.68C8.36133 9.2045 9.02084 9.4408 9.55 9.87L13.69 12.77C13.787 12.8379 13.9017 12.8761 14.02 12.88C14.066 12.891 14.114 12.891 14.16 12.88L18.1 11L17.83 10.78L12.9 6.78C12.8772 6.76685 12.8582 6.74791 12.845 6.72508C12.8318 6.70226 12.8248 6.67636 12.8248 6.65C12.8248 6.62364 12.8318 6.59774 12.845 6.57492C12.8582 6.5521 12.8772 6.53315 12.9 6.52L14.9 5.94C15.0851 5.88599 15.2771 5.85905 15.47 5.86C15.7181 5.86187 15.9644 5.90236 16.2 5.98L23.62 8.36L29.07 5.8C30.1066 5.3363 31.235 5.11404 32.37 5.15Z" stroke="#FE4297" stroke-linejoin="round"/>
<path d="M47.64 5.15C46.745 5.15981 45.8712 5.42334 45.12 5.91C43.43 7.33 45.64 9.09 46.84 9.64C48.04 10.19 60 15.87 66.23 18.8C66.3236 18.8453 66.426 18.8692 66.53 18.87C66.6376 18.8672 66.7436 18.8428 66.8415 18.7981C66.9394 18.7534 67.0274 18.6895 67.1 18.61L75.45 9.46C75.4725 9.44236 75.489 9.41827 75.4974 9.39095C75.5058 9.36363 75.5056 9.3344 75.4969 9.30719C75.4882 9.27997 75.4714 9.25607 75.4487 9.2387C75.426 9.22132 75.3985 9.21131 75.37 9.21H72.37H72.32C71.6387 9.2145 70.9792 9.45079 70.45 9.88L66.31 12.78C66.213 12.8479 66.0983 12.8861 65.98 12.89C65.934 12.901 65.886 12.901 65.84 12.89L61.9 11L62.17 10.78L67.1 6.78C67.1228 6.76685 67.1418 6.74791 67.155 6.72508C67.1682 6.70226 67.1752 6.67636 67.1752 6.65C67.1752 6.62364 67.1682 6.59774 67.155 6.57492C67.1418 6.55209 67.1228 6.53315 67.1 6.52L65.1 5.94C64.9148 5.88599 64.7229 5.85904 64.53 5.86C64.2819 5.86187 64.0356 5.90235 63.8 5.98L56.36 8.36L50.93 5.8C49.8965 5.33778 48.7717 5.11556 47.64 5.15Z" stroke="#FE4297" stroke-linejoin="round"/>
</g>
<defs>
<clipPath id="clip0_1_2">
<rect width="80" height="24" fill="white"/>
</clipPath>
</defs>
</svg>
